<?xml version="1.0" standalone="no"?>
<!DOCTYPE svg PUBLIC "-//W3C//DTD SVG 20010904//EN"
 "http://www.w3.org/TR/2001/REC-SVG-20010904/DTD/svg10.dtd">
<svg version="1.0" xmlns="http://www.w3.org/2000/svg"
 width="256.000000pt" height="256.000000pt" viewBox="0 0 256.000000 256.000000"
 preserveAspectRatio="xMidYMid meet">
<metadata>
Created by potrace 1.11, written by Peter Selinger 2001-2013
</metadata>
<g transform="translate(0.000000,256.000000) scale(0.100000,-0.100000)"
fill="#000000" stroke="none">
<path d="M1610 2546 c-3 -2 -35 -7 -72 -10 -37 -3 -88 -11 -115 -17 -26 -6
-61 -13 -77 -16 -51 -8 -169 -54 -221 -85 -28 -16 -62 -46 -75 -66 l-25 -36
-1 -340 c-1 -188 -2 -358 -3 -378 l-1 -37 -47 7 c-94 13 -424 6 -523 -12 -175
-31 -329 -85 -385 -133 -61 -54 -65 -67 -65 -208 0 -151 9 -175 87 -227 l41
-28 0 -84 c-1 -104 15 -136 90 -185 l52 -35 -62 -33 c-123 -65 -138 -94 -138
-259 0 -138 13 -171 90 -223 89 -61 235 -103 445 -130 75 -10 441 -7 490 3 17
4 53 11 80 16 132 25 197 45 278 87 69 36 126 90 128 121 1 9 2 39 3 67 l1 49
65 37 c63 36 68 37 175 39 117 2 150 4 211 14 22 3 57 9 79 12 22 3 48 7 57
10 9 3 26 7 39 9 23 5 84 23 109 32 8 4 17 7 20 8 71 18 174 99 189 148 6 20
9 344 9 837 -1 867 1 837 -52 882 -66 57 -220 117 -351 138 -38 6 -81 13 -95
16 -32 7 -424 16 -430 10z"/>
</g>
</svg>
