<?xml version="1.0" ?><svg viewBox="-10 -10 70 70" xmlns="http://www.w3.org/2000/svg" xmlns:xlink="http://www.w3.org/1999/xlink" width="96px" height="96px">
<defs>
  <style>.cls-1{fill:#cc7c33;}.cls-2{fill:#ffe996;}.cls-3{fill:url(#linear-gradient);}.cls-4{fill:url(#linear-gradient-2);}.cls-5{fill:url(#linear-gradient-3);}</style>
  <linearGradient gradientUnits="userSpaceOnUse" id="linear-gradient" x1="16.12" x2="27.52" y1="-0.62" y2="38.12">
    <stop offset="0.18" stop-color="#ffc308"/><stop offset="1" stop-color="#de9908"/></linearGradient>
    <linearGradient gradientUnits="userSpaceOnUse" id="linear-gradient-2" x1="32.15" x2="35.59" y1="11.24" y2="28.36">
      <stop offset="0.18" stop-color="#e5ad00"/><stop offset="1" stop-color="#c68600"/>
    </linearGradient>
    <linearGradient id="linear-gradient-3" x1="34.71" x2="37.77" xlink:href="#linear-gradient" y1="19.94" y2="32.93"/></defs>
    <title/>
    <g id="icons"><g data-name="Layer 3" id="Layer_3"><rect class="cls-1" height="29" rx="5" ry="5" width="35" x="6.45" y="7.5"/><rect class="cls-2" height="31" rx="5" ry="5" width="35" x="6.45" y="9.5"/><rect class="cls-3" height="29" rx="5" ry="5" width="35" x="6.45" y="11.5"/><path class="cls-4" d="M32.75,23.73a4,4,0,0,0,0,8h8.7v-8Z"/><path class="cls-5" d="M32.75,22H42a.93.93,0,0,1,.93.93v6.14A.93.93,0,0,1,42,30H32.75a4,4,0,0,1-4-4v0a4,4,0,0,1,4-4Z"/><circle class="cls-1" cx="32.67" cy="26" r="1.73"/></g></g>
  </svg>
