<?xml version="1.0" ?><!DOCTYPE svg  PUBLIC '-//W3C//DTD SVG 1.1//EN'  'http://www.w3.org/Graphics/SVG/1.1/DTD/svg11.dtd'><svg enable-background="new 0 0 24 24" height="24px" id="Layer_1" version="1.1" viewBox="0 0 24 24" width="24px" xml:space="preserve" xmlns="http://www.w3.org/2000/svg" xmlns:xlink="http://www.w3.org/1999/xlink"><g><rect height="1" width="5" x="5" y="11"/><rect height="1" width="5" x="14" y="11"/><path d="M21,4h-3V1c0-0.6-0.4-1-1-1H7C6.4,0,6,0.4,6,1v3H3C2.4,4,2,4.4,2,5v18c0,0.6,0.4,1,1,1h18c0.6,0,1-0.4,1-1V5   C22,4.4,21.6,4,21,4z M7.2,1h9.6L12,5.8L7.2,1z M13,6.2l4-4V7L13,6.2z M7,2.2l4,4L7,7V2.2z M4,22V6h2v1c0,0.6,0.4,1,1,1l4-0.8V22H4   z M20,22h-7V7.2L17,8c0.6,0,1-0.4,1-1V6h2V22z"/></g></svg>