<?xml version="1.0" ?><svg data-name="Layer 1" id="Layer_1" viewBox="0 0 256 256" xmlns="http://www.w3.org/2000/svg"><defs><style>.cls-1,.cls-2{fill:none;stroke:#000;stroke-miterlimit:10;}.cls-1{stroke-width:8px;}.cls-2{stroke-width:4px;}</style></defs><title/><rect class="cls-1" height="36.85" rx="10.81" ry="10.81" width="87.87" x="84.06" y="7.89"/><path class="cls-1" d="M114.65,44.73h0a19.09,19.09,0,0,1-16.1,18.85L87.71,65.3A39.61,39.61,0,0,0,54.3,104.43V229a19.09,19.09,0,0,0,19.09,19.09H182.61A19.09,19.09,0,0,0,201.7,229V104.43A39.61,39.61,0,0,0,168.29,65.3l-10.84-1.72a19.09,19.09,0,0,1-16.1-18.85h-26.7Z"/><line class="cls-1" x1="98.54" x2="98.54" y1="8.03" y2="44.73"/><line class="cls-1" x1="113.38" x2="113.38" y1="8.03" y2="44.73"/><line class="cls-1" x1="128.23" x2="128.23" y1="8.03" y2="44.73"/><line class="cls-1" x1="143.07" x2="143.07" y1="8.03" y2="44.73"/><line class="cls-1" x1="157.91" x2="157.91" y1="8.03" y2="44.73"/><line class="cls-1" x1="113.29" x2="143.07" y1="51.82" y2="51.82"/><circle class="cls-1" cx="128" cy="152.8" r="42.16"/><line class="cls-1" x1="128" x2="128" y1="130.09" y2="175.51"/><line class="cls-1" x1="105.29" x2="150.71" y1="152.8" y2="152.8"/><line class="cls-2" x1="54.3" x2="201.7" y1="208.43" y2="208.43"/><line class="cls-2" x1="54.3" x2="201.7" y1="97.17" y2="97.17"/></svg>