<?xml version="1.0" ?><!DOCTYPE svg  PUBLIC '-//W3C//DTD SVG 1.1//EN'  'http://www.w3.org/Graphics/SVG/1.1/DTD/svg11.dtd'><svg enable-background="new 0 0 24 24" height="24px" id="Layer_1" version="1.1" viewBox="0 0 24 24" width="24px" xml:space="preserve" xmlns="http://www.w3.org/2000/svg" xmlns:xlink="http://www.w3.org/1999/xlink"><g><path d="M22.793,4.936h-2.869c1.094-1.086,1.533-2.331,1.061-3.403c-0.428-0.974-1.496-1.532-2.93-1.532   c-0.996,0-2.15,0.263-3.24,0.743c-1.141,0.501-2.133,1.195-2.813,1.958c-0.678-0.763-1.672-1.457-2.809-1.958   C8.098,0.264,6.945,0,5.949,0C4.512,0,3.443,0.558,3.02,1.53C2.547,2.604,2.986,3.85,4.078,4.934H1.207   c-0.229,0-0.416,0.185-0.416,0.416v5.024c0,0.227,0.188,0.414,0.416,0.414h1.449h8.543V4.936h0.195h1.215h0.191v5.851h8.547l0,0   h1.445c0.23,0,0.416-0.186,0.416-0.413V5.35C23.211,5.12,23.025,4.936,22.793,4.936z M9.865,4.859   c-0.646,0-1.465-0.194-2.238-0.535C6.242,3.719,5.533,2.931,5.361,2.561c0.111-0.035,0.297-0.072,0.588-0.072   c0.648,0,1.469,0.194,2.242,0.535c1.383,0.604,2.09,1.393,2.266,1.764C10.348,4.822,10.16,4.859,9.865,4.859z M16.379,4.324   c-0.777,0.341-1.594,0.535-2.238,0.535c-0.297,0-0.484-0.037-0.59-0.072c0.172-0.37,0.875-1.159,2.26-1.764   c0.777-0.341,1.592-0.535,2.244-0.535c0.293,0,0.479,0.037,0.59,0.072C18.473,2.931,17.762,3.719,16.379,4.324z"/><path d="M12.801,12.4V24h8.133c0.229,0,0.414-0.185,0.414-0.416V12.4H12.801z"/><path d="M2.656,12.4v11.184C2.656,23.815,2.84,24,3.07,24h8.324V12.4H2.656z"/></g></svg>