<?xml version="1.0" ?><svg data-name="Layer 1" id="Layer_1" viewBox="0 0 64 64" xmlns="http://www.w3.org/2000/svg"><title/><path d="M40,62H34a1,1,0,0,1-.35-.06L14.82,55H2V53H15a1,1,0,0,1,.35.06L34.18,60h5.45l19.9-17.06L56.9,40.31,39.59,52.81a1,1,0,0,1-1,.1l-13-6A1,1,0,0,1,26,45H37V41H22.21l-6.82,2.92A1,1,0,0,1,15,44H2V42H14.79l6.82-2.92A1,1,0,0,1,22,39H38a1,1,0,0,1,1,1v6a1,1,0,0,1-1,1H30.55l8.34,3.85L56.41,38.19a1,1,0,0,1,1.3.1l4,4A1,1,0,0,1,62,43a1,1,0,0,1-.35.72l-21,18A1,1,0,0,1,40,62Z"/><path d="M28.54,4.89,27.46,3.21a14,14,0,0,1,15.08,0L41.46,4.89A12.19,12.19,0,0,0,28.54,4.89Z"/><path d="M22.08,20.39A13.8,13.8,0,0,1,21,15h2a12,12,0,0,0,.92,4.62Z"/><path d="M35,29V27a11.89,11.89,0,0,0,4.61-.92l.78,1.84A13.8,13.8,0,0,1,35,29Z"/><path d="M47.92,20.39l-1.84-.78A11.89,11.89,0,0,0,47,15h2A13.8,13.8,0,0,1,47.92,20.39Z"/><path d="M35,25A10,10,0,1,1,45,15,10,10,0,0,1,35,25ZM35,7a8,8,0,1,0,8,8A8,8,0,0,0,35,7Z"/><path d="M35,20.5A3.78,3.78,0,0,1,31,17h2c0,.81.92,1.5,2,1.5s2-.69,2-1.5c0-.16-.18-.34-.43-.42L32.8,15.32A2.51,2.51,0,0,1,31,13a3.78,3.78,0,0,1,4-3.5A3.78,3.78,0,0,1,39,13H37c0-.81-.92-1.5-2-1.5s-2,.69-2,1.5c0,.16.18.34.43.42l3.77,1.26A2.51,2.51,0,0,1,39,17,3.78,3.78,0,0,1,35,20.5Z"/><rect height="12" width="2" x="34" y="9"/><path d="M45.26,47.67,20,22.41,8.41,34l8,8L15,43.41l-8.7-8.7a1,1,0,0,1,0-1.42l13-13a1,1,0,0,1,1.42,0l26,26Z"/><path d="M57.71,39.71l-1.42-1.42L59.59,35,48,23.41,35.21,36.21l-1.42-1.42,13.5-13.5a1,1,0,0,1,1.42,0l13,13a1,1,0,0,1,0,1.42Z"/><path d="M44.16,46,44,44A4.5,4.5,0,1,0,39,39.09l-2-.18A6.5,6.5,0,1,1,44.16,46Z"/><path d="M21,40.88l-2-.05A7,7,0,0,1,26,34a7,7,0,0,1,6.9,5.83l-2,.34A5,5,0,0,0,26,36,5,5,0,0,0,21,40.88Z"/></svg>